<svg width="560" height="83" viewBox="0 0 560 83" fill="none" xmlns="http://www.w3.org/2000/svg">
<path fill-rule="evenodd" clip-rule="evenodd" d="M337.264 0.19223H334.519V82.2577H337.264V0.19223ZM368.761 6.75983C368.761 6.10439 368.915 5.46882 369.223 4.8531C369.531 4.22746 369.963 3.67133 370.519 3.18472C371.075 2.6981 371.736 2.3108 372.5 2.0228C373.265 1.72488 374.104 1.57592 375.018 1.57592C375.852 1.57592 376.627 1.72984 377.342 2.0377C378.067 2.33563 378.697 2.74279 379.233 3.2592C379.78 3.7756 380.202 4.39132 380.5 5.10634C380.807 5.82136 380.961 6.57611 380.961 7.37058H378.533C378.533 6.28811 378.196 5.40923 377.52 4.73393C376.845 4.0487 376.011 3.70609 375.018 3.70609C374.452 3.70609 373.93 3.79546 373.454 3.97422C372.987 4.14304 372.585 4.37145 372.247 4.65945C371.919 4.93751 371.661 5.26027 371.472 5.62771C371.294 5.99515 371.204 6.37252 371.204 6.75983C371.204 7.5543 371.458 8.17001 371.964 8.60697C372.47 9.04393 373.101 9.41137 373.856 9.7093C374.611 9.99729 375.43 10.2704 376.314 10.5286C377.198 10.7769 378.017 11.1095 378.772 11.5266C379.526 11.9437 380.157 12.4949 380.663 13.1801C381.17 13.8554 381.423 14.7641 381.423 15.9062C381.423 16.6013 381.274 17.2617 380.976 17.8874C380.688 18.5031 380.266 19.0493 379.71 19.526C379.164 20.0026 378.494 20.385 377.699 20.673C376.905 20.951 376.011 21.0901 375.018 21.0901C374.025 21.0901 373.131 20.951 372.336 20.673C371.542 20.385 370.867 19.9828 370.311 19.4664C369.764 18.94 369.342 18.3243 369.044 17.6192C368.756 16.9042 368.612 16.1296 368.612 15.2954H371.055C371.055 16.4573 371.388 17.361 372.053 18.0065C372.729 18.6421 373.717 18.9599 375.018 18.9599C376.319 18.9599 377.302 18.6669 377.967 18.081C378.643 17.4852 378.98 16.7602 378.98 15.9062C378.98 15.1117 378.727 14.496 378.22 14.059C377.714 13.6221 377.083 13.2596 376.329 12.9716C375.574 12.6737 374.755 12.4006 373.871 12.1523C372.987 11.8941 372.168 11.5564 371.413 11.1393C370.668 10.7222 370.037 10.176 369.521 9.50075C369.015 8.81552 368.761 7.90188 368.761 6.75983ZM362.967 16.219H355.042L353.21 20.9411H350.618L357.947 1.72488H360.077L367.391 20.9411H364.799L362.967 16.219ZM355.802 14.0739H362.207L359.004 5.68729L355.802 14.0739ZM386.547 14.3867C386.19 13.4532 386.011 12.4353 386.011 11.333C386.011 10.2307 386.19 9.21275 386.547 8.27925C386.915 7.34575 387.402 6.54135 388.007 5.86605C388.623 5.18082 389.328 4.64952 390.123 4.27215C390.917 3.89477 391.731 3.70609 392.566 3.70609C393.4 3.70609 394.214 3.89477 395.009 4.27215C395.803 4.64952 396.503 5.18082 397.109 5.86605C397.715 6.54135 398.201 7.34575 398.569 8.27925C398.936 9.21275 399.12 10.2307 399.12 11.333C399.12 12.4254 398.936 13.4433 398.569 14.3867C398.201 15.3202 397.715 16.1296 397.109 16.8148C396.503 17.4901 395.803 18.0165 395.009 18.3938C394.214 18.7712 393.4 18.9599 392.566 18.9599C391.731 18.9599 390.917 18.7712 390.123 18.3938C389.328 18.0165 388.623 17.4901 388.007 16.8148C387.402 16.1296 386.915 15.3202 386.547 14.3867ZM400.818 15.1762C401.315 13.9945 401.563 12.7134 401.563 11.333C401.563 9.97246 401.315 8.69635 400.818 7.50464C400.322 6.31294 399.661 5.27516 398.837 4.39132C398.013 3.50747 397.054 2.81727 395.962 2.32073C394.879 1.82419 393.747 1.57592 392.566 1.57592C391.384 1.57592 390.247 1.82419 389.154 2.32073C388.072 2.81727 387.118 3.50747 386.294 4.39132C385.47 5.27516 384.81 6.31294 384.313 7.50464C383.816 8.69635 383.568 9.97246 383.568 11.333C383.568 12.7134 383.816 13.9945 384.313 15.1762C384.81 16.358 385.47 17.3908 386.294 18.2747C387.118 19.1585 388.072 19.8487 389.154 20.3453C390.247 20.8418 391.384 21.0901 392.566 21.0901C393.747 21.0901 394.879 20.8418 395.962 20.3453C397.054 19.8487 398.013 19.1585 398.837 18.2747C399.661 17.3908 400.322 16.358 400.818 15.1762ZM412.705 3.70609C411.871 3.70609 411.057 3.89477 410.262 4.27215C409.468 4.64952 408.763 5.18082 408.147 5.86605C407.541 6.54135 407.055 7.34575 406.687 8.27925C406.33 9.21275 406.151 10.2307 406.151 11.333C406.151 12.4353 406.33 13.4532 406.687 14.3867C407.055 15.3202 407.541 16.1296 408.147 16.8148C408.763 17.4901 409.468 18.0165 410.262 18.3938C411.057 18.7712 411.871 18.9599 412.705 18.9599C413.46 18.9599 414.15 18.8457 414.776 18.6173C415.412 18.3789 415.968 18.0612 416.444 17.6639C416.921 17.2667 417.313 16.7999 417.621 16.2637C417.939 15.7175 418.182 15.1415 418.351 14.5357H420.943C420.675 15.4493 420.298 16.3034 419.811 17.0979C419.324 17.8923 418.728 18.5925 418.023 19.1982C417.328 19.7941 416.529 20.2608 415.625 20.5985C414.731 20.9262 413.758 21.0901 412.705 21.0901C411.524 21.0901 410.387 20.8418 409.294 20.3453C408.212 19.8487 407.258 19.1585 406.434 18.2747C405.61 17.3908 404.949 16.358 404.453 15.1762C403.956 13.9945 403.708 12.7134 403.708 11.333C403.708 9.97246 403.956 8.69635 404.453 7.50464C404.949 6.31294 405.61 5.27516 406.434 4.39132C407.258 3.50747 408.212 2.81727 409.294 2.32073C410.387 1.82419 411.524 1.57592 412.705 1.57592C413.738 1.57592 414.687 1.74474 415.551 2.08239C416.415 2.41011 417.194 2.87686 417.889 3.48264C418.584 4.07849 419.175 4.77365 419.662 5.56812C420.149 6.36259 420.526 7.21665 420.794 8.13029H418.187C418.028 7.5245 417.79 6.95348 417.472 6.41721C417.164 5.87102 416.772 5.3993 416.295 5.00206C415.829 4.60483 415.297 4.29201 414.701 4.0636C414.106 3.82526 413.44 3.70609 412.705 3.70609ZM424.295 20.9411H426.738V1.72488H424.295V20.9411ZM433.605 16.219L431.773 20.9411H429.181L436.51 1.72488H438.64L445.954 20.9411H443.362L441.53 16.219H433.605ZM440.77 14.0739L437.567 5.68729L434.365 14.0739H440.77ZM452.955 4.27215C453.75 3.89477 454.564 3.70609 455.398 3.70609C456.133 3.70609 456.798 3.82526 457.394 4.0636C457.99 4.29201 458.521 4.60483 458.988 5.00206C459.465 5.3993 459.857 5.87102 460.165 6.41721C460.483 6.95348 460.721 7.5245 460.88 8.13029H463.487C463.219 7.21665 462.841 6.36259 462.355 5.56812C461.868 4.77365 461.277 4.07849 460.582 3.48264C459.887 2.87686 459.107 2.41011 458.243 2.08239C457.379 1.74474 456.431 1.57592 455.398 1.57592C454.216 1.57592 453.079 1.82419 451.987 2.32073C450.904 2.81727 449.951 3.50747 449.127 4.39132C448.303 5.27516 447.642 6.31294 447.146 7.50464C446.649 8.69635 446.401 9.97246 446.401 11.333C446.401 12.7134 446.649 13.9945 447.146 15.1762C447.642 16.358 448.303 17.3908 449.127 18.2747C449.951 19.1585 450.904 19.8487 451.987 20.3453C453.079 20.8418 454.216 21.0901 455.398 21.0901C456.451 21.0901 457.424 20.9262 458.318 20.5985C459.222 20.2608 460.021 19.7941 460.716 19.1982C461.421 18.5925 462.017 17.8923 462.504 17.0979C462.99 16.3034 463.368 15.4493 463.636 14.5357H461.044C460.875 15.1415 460.632 15.7175 460.314 16.2637C460.006 16.7999 459.614 17.2667 459.137 17.6639C458.66 18.0612 458.104 18.3789 457.469 18.6173C456.843 18.8457 456.153 18.9599 455.398 18.9599C454.564 18.9599 453.75 18.7712 452.955 18.3938C452.161 18.0165 451.456 17.4901 450.84 16.8148C450.234 16.1296 449.748 15.3202 449.38 14.3867C449.023 13.4532 448.844 12.4353 448.844 11.333C448.844 10.2307 449.023 9.21275 449.38 8.27925C449.748 7.34575 450.234 6.54135 450.84 5.86605C451.456 5.18082 452.161 4.64952 452.955 4.27215ZM479.5 18.8109V20.9411H466.988V1.72488H479.188V3.85505H469.43V9.96253H478.428V12.0927H469.43V18.8109H479.5ZM352.45 35.3607C352.142 35.9764 351.988 36.612 351.988 37.2675C351.988 38.4095 352.241 39.3231 352.748 40.0084C353.264 40.6837 353.895 41.2299 354.64 41.647C355.394 42.0641 356.214 42.4017 357.097 42.6599C357.981 42.9082 358.801 43.1813 359.555 43.4792C360.31 43.7672 360.941 44.1297 361.447 44.5666C361.954 45.0036 362.207 45.6193 362.207 46.4138C362.207 47.2678 361.869 47.9928 361.194 48.5886C360.529 49.1746 359.545 49.4675 358.244 49.4675C356.944 49.4675 355.955 49.1497 355.28 48.5142C354.615 47.8687 354.282 46.9649 354.282 45.803H351.839C351.839 46.6372 351.983 47.4118 352.271 48.1269C352.569 48.8319 352.991 49.4477 353.537 49.974C354.093 50.4904 354.769 50.8926 355.563 51.1806C356.358 51.4587 357.251 51.5977 358.244 51.5977C359.238 51.5977 360.131 51.4587 360.926 51.1806C361.72 50.8926 362.391 50.5103 362.937 50.0336C363.493 49.5569 363.915 49.0107 364.203 48.395C364.501 47.7693 364.65 47.1089 364.65 46.4138C364.65 45.2717 364.397 44.3631 363.89 43.6878C363.384 43.0025 362.753 42.4514 361.998 42.0343C361.244 41.6172 360.424 41.2845 359.54 41.0362C358.657 40.778 357.837 40.5049 357.083 40.2169C356.328 39.919 355.697 39.5516 355.191 39.1146C354.684 38.6776 354.431 38.0619 354.431 37.2675C354.431 36.8801 354.52 36.5028 354.699 36.1353C354.888 35.7679 355.146 35.4451 355.474 35.1671C355.811 34.8791 356.214 34.6507 356.68 34.4818C357.157 34.3031 357.678 34.2137 358.244 34.2137C359.238 34.2137 360.072 34.5563 360.747 35.2416C361.422 35.9169 361.76 36.7957 361.76 37.8782H364.188C364.188 37.0837 364.034 36.329 363.726 35.614C363.428 34.8989 363.006 34.2832 362.46 33.7668C361.924 33.2504 361.293 32.8433 360.568 32.5453C359.853 32.2375 359.079 32.0835 358.244 32.0835C357.331 32.0835 356.492 32.2325 355.727 32.5304C354.962 32.8184 354.302 33.2057 353.746 33.6923C353.19 34.179 352.758 34.7351 352.45 35.3607ZM369.238 41.8406C369.238 42.9429 369.417 43.9609 369.774 44.8944C370.142 45.8279 370.628 46.6372 371.234 47.3225C371.85 47.9978 372.555 48.5241 373.349 48.9015C374.144 49.2788 374.958 49.4675 375.792 49.4675C376.627 49.4675 377.441 49.2788 378.235 48.9015C379.03 48.5241 379.73 47.9978 380.336 47.3225C380.941 46.6372 381.428 45.8279 381.796 44.8944C382.163 43.9509 382.347 42.933 382.347 41.8406C382.347 40.7383 382.163 39.7204 381.796 38.7869C381.428 37.8534 380.941 37.049 380.336 36.3737C379.73 35.6884 379.03 35.1571 378.235 34.7798C377.441 34.4024 376.627 34.2137 375.792 34.2137C374.958 34.2137 374.144 34.4024 373.349 34.7798C372.555 35.1571 371.85 35.6884 371.234 36.3737C370.628 37.049 370.142 37.8534 369.774 38.7869C369.417 39.7204 369.238 40.7383 369.238 41.8406ZM384.79 41.8406C384.79 43.221 384.541 44.5021 384.045 45.6839C383.548 46.8656 382.888 47.8984 382.064 48.7823C381.239 49.6661 380.281 50.3563 379.189 50.8529C378.106 51.3494 376.974 51.5977 375.792 51.5977C374.611 51.5977 373.473 51.3494 372.381 50.8529C371.299 50.3563 370.345 49.6661 369.521 48.7823C368.697 47.8984 368.036 46.8656 367.54 45.6839C367.043 44.5021 366.795 43.221 366.795 41.8406C366.795 40.4801 367.043 39.204 367.54 38.0123C368.036 36.8206 368.697 35.7828 369.521 34.8989C370.345 34.0151 371.299 33.3249 372.381 32.8284C373.473 32.3318 374.611 32.0835 375.792 32.0835C376.974 32.0835 378.106 32.3318 379.189 32.8284C380.281 33.3249 381.239 34.0151 382.064 34.8989C382.888 35.7828 383.548 36.8206 384.045 38.0123C384.541 39.204 384.79 40.4801 384.79 41.8406ZM390.748 40.7681V34.3627H400.044V32.2325H388.305V51.4487H390.748V42.9132H398.375V40.7681H390.748ZM415.908 34.3627H410.113V51.4487H407.67V34.3627H401.876V32.2325H415.908V34.3627ZM424.295 51.4487L428.272 37.5654L432.234 51.4487H433.918L439.861 32.2325H437.269L432.994 46.1159L429.032 32.2325H427.512L423.535 46.1159L419.275 32.2325H416.668L422.626 51.4487H424.295ZM443.377 46.7266L441.545 51.4487H438.953L446.282 32.2325H448.412L455.726 51.4487H453.134L451.302 46.7266H443.377ZM450.542 44.5815L447.339 36.1949L444.137 44.5815H450.542ZM460.612 43.5239H464.261L468.85 51.4487H471.59L466.898 43.36C467.673 43.1217 468.373 42.7592 468.999 42.2726C469.525 41.8654 470.011 41.3143 470.458 40.6191C470.905 39.914 471.129 39.0004 471.129 37.8782C471.129 37.1235 470.975 36.4035 470.667 35.7182C470.369 35.0231 469.957 34.4223 469.43 33.9158C468.914 33.3994 468.298 32.9922 467.583 32.6943C466.878 32.3864 466.128 32.2325 465.334 32.2325H458.169V51.4487H460.612V43.5239ZM465.334 41.3788H460.612V34.3627H465.334C465.781 34.3627 466.208 34.457 466.615 34.6457C467.022 34.8245 467.38 35.0727 467.688 35.3905C467.995 35.6984 468.239 36.0708 468.418 36.5077C468.596 36.9348 468.686 37.3916 468.686 37.8782C468.686 38.3648 468.596 38.8216 468.418 39.2487C468.239 39.6757 467.995 40.0481 467.688 40.3659C467.38 40.6737 467.022 40.922 466.615 41.1107C466.208 41.2895 465.781 41.3788 465.334 41.3788ZM476.164 41.8406C476.164 42.9429 476.342 43.9609 476.7 44.8944C477.067 45.8279 477.554 46.6372 478.16 47.3225C478.775 47.9978 479.481 48.5241 480.275 48.9015C481.069 49.2788 481.884 49.4675 482.718 49.4675C483.552 49.4675 484.367 49.2788 485.161 48.9015C485.955 48.5241 486.656 47.9978 487.261 47.3225C487.867 46.6372 488.354 45.8279 488.721 44.8944C489.089 43.9509 489.272 42.933 489.272 41.8406C489.272 40.7383 489.089 39.7204 488.721 38.7869C488.354 37.8534 487.867 37.049 487.261 36.3737C486.656 35.6884 485.955 35.1571 485.161 34.7798C484.367 34.4024 483.552 34.2137 482.718 34.2137C481.884 34.2137 481.069 34.4024 480.275 34.7798C479.481 35.1571 478.775 35.6884 478.16 36.3737C477.554 37.049 477.067 37.8534 476.7 38.7869C476.342 39.7204 476.164 40.7383 476.164 41.8406ZM491.715 41.8406C491.715 43.221 491.467 44.5021 490.971 45.6839C490.474 46.8656 489.814 47.8984 488.989 48.7823C488.165 49.6661 487.207 50.3563 486.114 50.8529C485.032 51.3494 483.9 51.5977 482.718 51.5977C481.536 51.5977 480.399 51.3494 479.307 50.8529C478.224 50.3563 477.271 49.6661 476.447 48.7823C475.622 47.8984 474.962 46.8656 474.465 45.6839C473.969 44.5021 473.721 43.221 473.721 41.8406C473.721 40.4801 473.969 39.204 474.465 38.0123C474.962 36.8206 475.622 35.7828 476.447 34.8989C477.271 34.0151 478.224 33.3249 479.307 32.8284C480.399 32.3318 481.536 32.0835 482.718 32.0835C483.9 32.0835 485.032 32.3318 486.114 32.8284C487.207 33.3249 488.165 34.0151 488.989 34.8989C489.814 35.7828 490.474 36.8206 490.971 38.0123C491.467 39.204 491.715 40.4801 491.715 41.8406ZM499.491 51.4487H501.919L508.935 32.2325H506.344L500.698 47.9332L495.067 32.2325H492.46L499.491 51.4487ZM518.38 26.274H520.674L518.067 29.9385H516.548L518.38 26.274ZM509.829 32.2325H512.436L517.158 41.3788L521.88 32.2325H524.487L518.38 43.9708V51.4487H515.937V43.9708L509.829 32.2325ZM531.786 34.7798C532.581 34.4024 533.395 34.2137 534.229 34.2137C534.964 34.2137 535.63 34.3329 536.226 34.5712C536.821 34.7996 537.353 35.1125 537.819 35.5097C538.296 35.9069 538.688 36.3786 538.996 36.9248C539.314 37.4611 539.552 38.0321 539.711 38.6379H542.318C542.05 37.7243 541.673 36.8702 541.186 36.0757C540.699 35.2813 540.108 34.5861 539.413 33.9903C538.718 33.3845 537.939 32.9177 537.075 32.59C536.211 32.2524 535.262 32.0835 534.229 32.0835C533.048 32.0835 531.911 32.3318 530.818 32.8284C529.736 33.3249 528.782 34.0151 527.958 34.8989C527.134 35.7828 526.473 36.8206 525.977 38.0123C525.48 39.204 525.232 40.4801 525.232 41.8406C525.232 43.221 525.48 44.5021 525.977 45.6839C526.473 46.8656 527.134 47.8984 527.958 48.7823C528.782 49.6661 529.736 50.3563 530.818 50.8529C531.911 51.3494 533.048 51.5977 534.229 51.5977C535.282 51.5977 536.255 51.4338 537.149 51.1061C538.053 50.7685 538.852 50.3017 539.547 49.7059C540.252 49.1001 540.848 48.4 541.335 47.6055C541.822 46.811 542.199 45.957 542.467 45.0433H539.875C539.706 45.6491 539.463 46.2251 539.145 46.7713C538.837 47.3076 538.445 47.7743 537.968 48.1715C537.492 48.5688 536.936 48.8866 536.3 49.1249C535.674 49.3533 534.984 49.4675 534.229 49.4675C533.395 49.4675 532.581 49.2788 531.786 48.9015C530.992 48.5241 530.287 47.9978 529.671 47.3225C529.065 46.6372 528.579 45.8279 528.211 44.8944C527.854 43.9609 527.675 42.9429 527.675 41.8406C527.675 40.7383 527.854 39.7204 528.211 38.7869C528.579 37.8534 529.065 37.049 529.671 36.3737C530.287 35.6884 530.992 35.1571 531.786 34.7798ZM560 32.2325V51.4487H557.557V42.7493H548.262V51.4487H545.819V32.2325H548.262V40.6191H557.557V32.2325H560ZM353.21 81.9564L355.042 77.2342H362.967L364.799 81.9564H367.391L360.077 62.7401H357.947L350.618 81.9564H353.21ZM359.004 66.7025L362.207 75.0892H355.802L359.004 66.7025ZM376.984 64.7213C376.15 64.7213 375.336 64.91 374.541 65.2874C373.747 65.6648 373.041 66.1961 372.426 66.8813C371.82 67.5566 371.333 68.361 370.966 69.2945C370.608 70.228 370.43 71.2459 370.43 72.3482C370.43 73.4506 370.608 74.4685 370.966 75.402C371.333 76.3355 371.82 77.1449 372.426 77.8301C373.041 78.5054 373.747 79.0317 374.541 79.4091C375.336 79.7865 376.15 79.9751 376.984 79.9751C377.739 79.9751 378.464 79.8163 379.159 79.4985C379.864 79.1807 380.485 78.7636 381.021 78.2472C381.567 77.7308 381.994 77.1498 382.302 76.5043C382.62 75.8489 382.779 75.1736 382.779 74.4784H377.133V72.3482H385.222V81.9564H383.389L382.779 79.6623C382.332 80.1092 381.825 80.5164 381.259 80.8838C380.753 81.1917 380.142 81.4747 379.427 81.7329C378.712 81.9812 377.898 82.1053 376.984 82.1053C375.802 82.1053 374.665 81.857 373.573 81.3605C372.49 80.864 371.537 80.1738 370.713 79.2899C369.888 78.4061 369.228 77.3733 368.731 76.1915C368.235 75.0097 367.987 73.7286 367.987 72.3482C367.987 70.9877 368.235 69.7116 368.731 68.5199C369.228 67.3282 369.888 66.2904 370.713 65.4066C371.537 64.5227 372.49 63.8325 373.573 63.336C374.665 62.8394 375.802 62.5912 376.984 62.5912C378.037 62.5912 378.995 62.7451 379.859 63.0529C380.733 63.3509 381.503 63.7829 382.168 64.3489C382.843 64.9051 383.419 65.5655 383.896 66.3301C384.373 67.0849 384.765 67.9191 385.073 68.8327H382.481C382.093 67.6112 381.463 66.6231 380.589 65.8683C379.715 65.1037 378.513 64.7213 376.984 64.7213ZM402.308 81.9564V79.8262H392.238V73.1079H401.235V70.9778H392.238V64.8703H401.995V62.7401H389.795V81.9564H402.308ZM420.451 62.7401V81.9564H418.321L408.713 67.4623V81.9564H406.27V62.7401H408.4L418.008 77.2342V62.7401H420.451ZM431.594 64.8703H437.389V62.7401H423.356V64.8703H429.151V81.9564H431.594V64.8703ZM446.997 82.1053C445.964 82.1053 445.02 81.9365 444.166 81.5988C443.312 81.2513 442.572 80.7746 441.947 80.1688C441.331 79.5531 440.849 78.8281 440.502 77.9939C440.154 77.1597 439.981 76.2411 439.981 75.2381V62.7401H442.424V75.2381C442.424 76.698 442.841 77.8549 443.675 78.709C444.509 79.5531 445.616 79.9751 446.997 79.9751C448.377 79.9751 449.484 79.5531 450.319 78.709C451.163 77.8648 451.585 76.7079 451.585 75.2381V62.7401H454.013V75.2381C454.013 76.2312 453.839 77.1498 453.491 77.9939C453.154 78.8281 452.672 79.5531 452.047 80.1688C451.431 80.7746 450.691 81.2513 449.827 81.5988C448.973 81.9365 448.029 82.1053 446.997 82.1053ZM461.029 74.0315H464.679L469.267 81.9564H472.008L467.315 73.8677C468.09 73.6293 468.79 73.2668 469.416 72.7802C469.942 72.3731 470.429 71.8219 470.875 71.1267C471.322 70.4217 471.546 69.508 471.546 68.3858C471.546 67.6311 471.392 66.9111 471.084 66.2259C470.786 65.5307 470.374 64.9299 469.848 64.4234C469.331 63.907 468.715 63.4998 468 63.2019C467.295 62.8941 466.546 62.7401 465.751 62.7401H458.586V81.9564H461.029V74.0315ZM465.751 71.8865H461.029V64.8703H465.751C466.198 64.8703 466.625 64.9646 467.032 65.1533C467.439 65.3321 467.797 65.5804 468.105 65.8981C468.413 66.206 468.656 66.5784 468.835 67.0154C469.013 67.4424 469.103 67.8992 469.103 68.3858C469.103 68.8724 469.013 69.3293 468.835 69.7563C468.656 70.1833 468.413 70.5557 468.105 70.8735C467.797 71.1814 467.439 71.4296 467.032 71.6183C466.625 71.7971 466.198 71.8865 465.751 71.8865Z" fill="#374562"/>
<path fill-rule="evenodd" clip-rule="evenodd" d="M79.6585 25.1341C79.6585 22.3425 80.2407 19.7061 81.4053 17.2247C82.6474 14.6657 84.3942 12.4558 86.6456 10.5947C88.897 8.65613 91.6142 7.10527 94.7973 5.94212C98.0579 4.77896 101.746 4.19739 105.86 4.19739C109.82 4.19739 113.352 4.77896 116.457 5.94212C119.64 7.10527 122.319 8.73368 124.493 10.8273C126.744 12.921 128.452 15.4024 129.616 18.2715C130.859 21.0631 131.48 24.126 131.48 27.4604L115.176 28.6235C115.176 25.6769 114.361 23.3894 112.731 21.761C111.101 20.1325 108.81 19.3183 105.86 19.3183C103.221 19.3183 101.086 20.055 99.4553 21.5283C97.9026 22.9241 97.1263 24.5137 97.1263 26.2972C97.1263 28.0807 98.0191 29.4377 99.8047 30.3683C101.59 31.2988 103.803 32.1905 106.442 33.0435C109.16 33.8189 112.071 34.6719 115.176 35.6024C118.282 36.533 121.154 37.8512 123.794 39.5572C126.511 41.2631 128.762 43.5119 130.548 46.3034C132.334 49.095 133.226 52.7007 133.226 57.1207C133.226 60.0674 132.605 62.8589 131.363 65.4954C130.199 68.0543 128.452 70.3031 126.123 72.2417C123.794 74.1803 120.921 75.7311 117.505 76.8943C114.09 78.0574 110.208 78.639 105.86 78.639C101.668 78.639 97.9027 78.0574 94.5644 76.8943C91.2261 75.7311 88.3924 74.1027 86.0633 72.009C83.8119 69.8378 82.0651 67.3177 80.823 64.4486C79.6585 61.5019 79.0762 58.2839 79.0762 54.7944L95.3795 53.6313C95.3795 60.2225 98.8731 63.518 105.86 63.518C109.121 63.518 111.566 62.7814 113.197 61.3081C114.905 59.7572 115.759 57.9737 115.759 55.9576C115.759 54.0965 114.866 52.662 113.08 51.6539C111.295 50.6459 109.043 49.7153 106.326 48.8624C103.686 48.0094 100.814 47.1176 97.7086 46.1871C94.6032 45.2566 91.6919 43.9771 88.9746 42.3487C86.3351 40.6428 84.1225 38.4328 82.3369 35.7188C80.5513 33.0047 79.6585 29.4765 79.6585 25.1341ZM41.4089 43.0652L35.4248 25.1341L27.2732 49.5602H40.6744V49.5611H60.1712L70.3605 78.0574H52.8927L48.2346 64.0996H22.6151L22.6142 64.1022H5.47902L26.6909 4.77896H44.1587L57.8485 43.0652H41.4089ZM3.10783 70.7337H20.4011L17.957 78.0574H0.489136L3.10783 70.7337ZM165.324 78.0574H178.133L191.525 35.0209L204.917 78.0574H217.727L241.018 4.77896H224.714L210.74 50.1418L196.766 4.77896H186.285L172.311 50.1418L158.337 4.77896H142.033L165.324 78.0574ZM285.306 49.5602L277.154 25.1341L269.003 49.5602H285.306ZM264.344 64.0996L259.686 78.0574H242.219L268.42 4.77896H285.888L312.09 78.0574H294.622L289.964 64.0996H264.344Z" fill="#2548FF"/>
</svg>
