<?xml version="1.0" encoding="UTF-8"?>
<svg width="500px" height="300px" viewBox="0 0 500 300" version="1.1" xmlns="http://www.w3.org/2000/svg" xmlns:xlink="http://www.w3.org/1999/xlink">
    <!-- Generator: Sketch 57.1 (83088) - https://sketch.com -->
    <title>pyvec</title>
    <desc>Created with Sketch.</desc>
    <g id="Page-1" stroke="none" stroke-width="1" fill="none" fill-rule="evenodd">
        <g id="pyvec" fill-rule="nonzero">
            <polygon id="path4146" fill="#FFFFFF" points="500 300.00001 1.1007397e-05 300.00001 1.1007397e-05 9.99999998e-06 500 9.99999997e-06"></polygon>
            <g id="Group" transform="translate(80.000000, 124.000000)">
                <path d="M26.8893886,22.0210342 C26.8893886,18.4583895 26.0856827,15.6056829 24.4803179,13.4636035 C22.874271,11.320169 20.4911269,10.2477704 17.3308847,10.2477704 C16.2945274,10.2477704 15.3359474,10.286564 14.4558283,10.3633768 C13.5750272,10.440902 12.8490994,10.532698 12.2800919,10.6347073 L12.2800919,31.4713368 C13.0046548,31.9351098 13.9516361,32.3234018 15.1169409,32.6321321 C16.2822466,32.9408625 17.4598322,33.0965943 18.6524278,33.0965943 C24.1425977,33.0965943 26.8893886,29.4054198 26.8893886,22.0210342 M38.701407,21.7102597 C38.701407,24.8614988 38.3131994,27.7271211 37.53542,30.3078081 C36.7590049,32.8912206 35.6189429,35.1108253 34.1165999,36.9693321 C32.6135748,38.8285204 30.7482679,40.2749325 28.5220441,41.3078871 C26.2930904,42.3394867 23.7291464,42.8583451 20.8281643,42.8583451 C19.2214353,42.8583451 17.7197744,42.6998954 16.3204531,42.391165 C14.921814,42.0831161 13.5750272,41.6438194 12.2800919,41.0760006 L12.2800919,56.41122 L0.701407,56.41122 L0.701407,2.73486268 C1.73640014,2.42613235 2.92763155,2.12896267 4.27578256,1.84402729 C5.62325225,1.56113612 7.03417218,1.31428969 8.51058864,1.10756094 C9.98837083,0.902194989 11.4893489,0.733547438 13.0176184,0.604343901 C14.5458872,0.475821768 16.0100236,0.41122 17.4086628,0.41122 C20.7756298,0.41122 23.7809987,0.914437036 26.4227208,1.9201897 C29.065125,2.92934939 31.2927137,4.34924097 33.1061683,6.18190867 C34.9189416,8.01389495 36.3053,10.2477704 37.2638792,12.8808248 C38.2217763,15.5145606 38.701407,18.4583895 38.701407,21.7102597" id="path4158-3" fill="#232F36"></path>
                <path d="M79.701407,0.41122 C77.3311718,8.39324043 74.8564779,15.8746125 72.2759231,22.8581077 C69.694683,29.842288 66.876142,36.61625 63.8216867,43.1786157 C62.7168274,45.5421741 61.6119602,47.551681 60.5077942,49.2029869 C59.4015405,50.8577573 58.1908282,52.2234756 56.8770358,53.3001496 C55.5611636,54.3761228 54.075788,55.1644375 52.4181485,55.664393 C50.760509,56.1595139 48.8282101,56.41122 46.6191769,56.41122 C44.7768164,56.41122 43.0790501,56.2418044 41.5272613,55.8988158 C39.9761641,55.557213 38.700418,55.1768862 37.701407,54.7564496 L39.7492422,45.3851993 C40.958572,45.8028722 42.0364532,46.0939952 42.981501,46.251655 C43.9272412,46.4093148 44.9269447,46.4874557 45.9785363,46.4874557 C48.0796431,46.4874557 49.6950808,45.921808 50.8262329,44.7953471 C51.9560015,43.6647445 52.9162706,42.1019417 53.7049636,40.1076472 C51.0234061,34.8570633 48.342541,28.9633836 45.6616752,22.4252224 C42.981501,15.8870612 40.4583741,8.55090023 38.0950618,0.41122 L50.5446561,0.41122 C51.0725269,2.45945094 51.6931036,4.67779825 52.4050037,7.06693908 C53.1175947,9.45677282 53.8703132,11.8715039 54.6617712,14.3132033 C55.4525455,16.7535168 56.2571452,19.130209 57.0742074,21.4405238 C57.891955,23.7515237 58.6716532,25.8509274 59.4105369,27.7408056 C60.0954581,25.8509274 60.8073527,23.7515237 61.5462363,21.4405238 C62.28512,19.130209 63.0108557,16.7535168 63.722065,14.3132033 C64.4339595,11.8715039 65.1202594,9.45677282 65.7795858,7.06693908 C66.4389044,4.67779825 67.0318059,2.45945094 67.5596768,0.41122 L79.701407,0.41122 L79.701407,0.41122 Z" id="path4162-6" fill="#232F36"></path>
                <path d="M96.433663,42.41122 C93.798629,37.2144499 91.1235943,31.1342151 88.4119554,24.1712012 C85.6996372,17.2075095 83.1283249,9.62107247 80.701407,1.41122 L92.9010765,1.41122 C93.4169631,3.43819091 94.0257266,5.63351244 94.7239782,7.99785469 C95.4215428,10.3628827 96.144874,12.7525496 96.8960018,15.1682191 C97.6450918,17.5838886 98.3941818,19.9359114 99.1453096,22.2222459 C99.8950712,24.5092583 100.631965,26.5868708 101.355968,28.4571326 C102.026423,26.5868708 102.750433,24.5092583 103.524603,22.2222459 C104.300131,19.9359114 105.062783,17.5838886 105.811194,15.1682191 C106.560284,12.7525496 107.284294,10.3628827 107.981867,7.99785469 C108.678752,5.63351244 109.287515,3.43819091 109.804089,1.41122 L121.701407,1.41122 C119.274489,9.62107247 116.705215,17.2075095 113.996285,24.1712012 C111.286676,31.1342151 108.614351,37.2144499 105.981355,42.41122 L96.433663,42.41122 L96.433663,42.41122 Z" id="path4166-7" fill="#232F36"></path>
                <path d="M151.335648,17.797386 C151.282214,16.8168034 151.108982,15.8580244 150.819932,14.927179 C150.5295,13.9956585 150.083106,13.1663514 149.478667,12.442664 C148.872846,11.7189765 148.108988,11.1213546 147.189854,10.6573014 C146.267255,10.1905169 145.122845,9.95814117 143.753853,9.95814117 C142.438231,9.95814117 141.306994,10.1796151 140.360133,10.6177755 C139.412585,11.0579843 138.622381,11.6412904 137.991603,12.3649778 C137.359444,13.089348 136.87215,13.9302398 136.530422,14.886978 C136.187306,15.8464398 135.938469,16.8168034 135.78111,17.797386 L151.335648,17.797386 Z M123.701407,22.2219531 C123.701407,18.6008003 124.266327,15.4307581 125.398259,12.715233 C126.529496,9.99698427 128.016328,7.73393541 129.859442,5.92268005 C131.700472,4.11141692 133.819471,2.74105322 136.215034,1.80952497 C138.609207,0.878004476 141.069934,0.41122 143.597196,0.41122 C149.491145,0.41122 154.149183,2.18364003 157.569935,5.72914738 C160.989993,9.27262179 162.701407,14.487653 162.701407,21.3681188 C162.701407,22.0413785 162.676466,22.7793741 162.62311,23.5800571 C162.569755,24.3827886 162.515673,25.0928507 162.465767,25.7149998 L135.781142,25.7149998 C136.043854,28.0952608 137.175091,29.9842023 139.176251,31.3804589 C141.176013,32.7780888 143.85994,33.4779241 147.228702,33.4779241 C149.387197,33.4779241 151.505509,33.2823507 153.585683,32.8939352 C155.662385,32.505512 157.359252,32.0291914 158.677644,31.458145 L160.253893,40.8497016 C159.624497,41.1618042 158.781608,41.4718507 157.730783,41.7798642 C156.676485,42.0933247 155.505736,42.3624952 154.215072,42.5975867 C152.9244,42.8292719 151.543631,43.0248452 150.070659,43.1795348 C148.597,43.3335416 147.122647,43.41122 145.649682,43.41122 C141.91216,43.41122 138.662618,42.8667571 135.89899,41.7798642 C133.136048,40.6956948 130.84654,39.207444 129.031146,37.3178196 C127.215066,35.428878 125.872412,33.1924048 125.003887,30.604303 C124.135354,28.0168918 123.701407,25.2223225 123.701407,22.2219531 L123.701407,22.2219531 Z" id="path4170-5" fill="#232F36"></path>
                <path d="M168.701407,21.9105333 C168.701407,18.9612822 169.179963,16.1810212 170.137051,13.569075 C171.095514,10.9544053 172.479337,8.67772337 174.292644,6.73698843 C176.103219,4.79830194 178.301671,3.25757487 180.892099,2.11889636 C183.47912,0.981575725 186.430157,0.41122 189.743861,0.41122 C191.917777,0.41122 193.909676,0.60542773 195.721609,0.99452601 C197.53355,1.38226641 199.292312,1.93899679 201.00131,2.66336703 L198.594939,11.8981933 C197.506964,11.4845601 196.315364,11.1213546 195.024244,10.8119832 C193.728343,10.5026118 192.278386,10.3465566 190.67573,10.3465566 C187.258416,10.3465566 184.708204,11.4075567 183.026474,13.5288663 C181.343379,15.6501836 180.503538,18.4447528 180.503538,21.9105333 C180.503538,25.5855202 181.291574,28.4305172 182.871727,30.4482555 C184.449846,32.4666689 187.20592,33.4779163 191.140639,33.4779163 C192.538117,33.4779163 194.039197,33.3470866 195.643902,33.0867773 C197.247233,32.8298744 198.723776,32.4155584 200.069441,31.8465605 L201.701407,41.3171611 C200.353026,41.8854839 198.672654,42.3747549 196.652803,42.7890709 C194.634993,43.204062 192.408589,43.41122 189.975633,43.41122 C186.25019,43.41122 183.038746,42.8538068 180.347425,41.7430618 C177.656111,40.6302761 175.444021,39.1174903 173.709112,37.2012903 C171.974204,35.287131 170.706945,33.0240821 169.905279,30.412136 C169.10224,27.7974663 168.701407,24.9654196 168.701407,21.9105333" id="path4174-3" fill="#232F36"></path>
                <path d="M221.701407,36.4115509 C221.701407,38.6935554 220.934663,40.4317869 219.403304,41.6222214 C217.871936,42.8133328 216.138086,43.41122 214.202471,43.41122 C212.266139,43.41122 210.533708,42.8133328 209.000929,41.6222214 C207.468151,40.4317869 206.701407,38.6935554 206.701407,36.4115509 C206.701407,34.1275382 207.468151,32.3906531 209.000929,31.1975411 C210.533708,30.0071066 212.266139,29.41122 214.202471,29.41122 C216.138086,29.41122 217.871936,30.0071066 219.403304,31.1975411 C220.934663,32.3906531 221.701407,34.1275382 221.701407,36.4115509" id="path4178" fill="#00A8F8"></path>
                <path d="M252.941056,21.8335377 C252.941056,18.2641705 252.231216,15.4580166 250.812194,13.4130276 C249.393867,11.3693964 247.369609,10.3472472 244.740804,10.3472472 C242.109957,10.3472472 240.071444,11.3693964 238.628652,13.4130276 C237.183154,15.4580166 236.461077,18.2641705 236.461077,21.8335377 C236.461077,25.4042628 237.183154,28.2363095 238.628652,30.3344575 C240.071444,32.4285086 242.109957,33.4779241 244.740804,33.4779241 C247.369609,33.4779241 249.393867,32.4285086 250.812194,30.3344575 C252.231216,28.2363095 252.941056,25.4042628 252.941056,21.8335377 M264.701407,21.8335377 C264.701407,25.0437808 264.237462,27.9800894 263.308891,30.6431461 C262.380313,33.3089263 261.038058,35.5856083 259.286194,37.4745499 C257.531615,39.3628086 255.429259,40.8244916 252.979776,41.8582255 C250.52894,42.8946906 247.782621,43.41122 244.740804,43.41122 C241.747221,43.41122 239.026032,42.8946906 236.577237,41.8582255 C234.127074,40.8244916 232.02403,39.3628086 230.272174,37.4745499 C228.516914,35.5856083 227.149529,33.3089263 226.17069,30.6431461 C225.189809,27.9800894 224.701407,25.0437808 224.701407,21.8335377 C224.701407,18.6273759 225.20408,15.7019692 226.208729,13.0627646 C227.216094,10.4242428 228.608617,8.17414426 230.388326,6.31109551 C232.167362,4.44804676 234.281273,3.00067968 236.731429,1.96489736 C239.181585,0.929107281 241.851152,0.41122 244.740804,0.41122 C247.679362,0.41122 250.37474,0.929107281 252.824896,1.96489736 C255.273698,3.00067968 257.376742,4.44804676 259.12996,6.31109551 C260.883185,8.17414426 262.251251,10.4242428 263.231443,13.0627646 C264.210963,15.7019692 264.701407,18.6273759 264.701407,21.8335377" id="path4182" fill="#00A8F8"></path>
                <path d="M297.726769,11.5947892 C296.673917,11.3338543 295.436742,11.0626299 294.015869,10.7749159 C292.596384,10.4878977 291.068776,10.3443846 289.438585,10.3443846 C288.700404,10.3443846 287.819475,10.409593 286.793678,10.5393919 C285.765102,10.6684871 284.990214,10.8120002 284.464837,10.9678668 L284.464837,42.41122 L272.701407,42.41122 L272.701407,3.46066237 C274.806377,2.7321198 277.291862,2.04134174 280.161327,1.38832821 C283.030105,0.736690781 286.226717,0.41122 289.752537,0.41122 C290.385374,0.41122 291.147075,0.450313711 292.042564,0.527953821 C292.938061,0.605515744 293.831507,0.711287688 294.725615,0.841063171 C295.621112,0.971534522 296.51522,1.1280892 297.409991,1.31005478 C298.305489,1.4940767 299.069296,1.71518291 299.701407,1.97404583 L297.726769,11.5947892 L297.726769,11.5947892 Z" id="path4186" fill="#00A8F8"></path>
                <path d="M315.442924,20.6671389 C315.442924,27.2107078 318.041744,30.4814561 323.243455,30.4814561 C324.428934,30.4814561 325.533676,30.3249882 326.565233,30.0099724 C327.59608,29.6963381 328.470294,29.3310108 329.191885,28.9105293 L329.191885,10.2262358 C328.625567,10.1207701 327.955516,10.0297856 327.183089,9.94982091 C326.41196,9.87195978 325.509319,9.83263677 324.479824,9.83263677 C321.441533,9.83263677 319.175676,10.8528138 317.683011,12.895915 C316.188284,14.9369442 315.442924,17.5266588 315.442924,20.6671389 L315.442924,20.6671389 Z M340.701407,37.4689433 C340.701407,44.2234436 339.014077,49.233313 335.642119,52.5040614 C332.268154,55.7741269 327.054883,57.41122 319.99965,57.41122 C317.527027,57.41122 315.056359,57.1878873 312.584386,56.7432861 C310.11371,56.2993756 307.820076,55.7107078 305.708195,54.9779733 L307.717693,45.1643389 C309.520325,45.8977641 311.412421,46.4698864 313.395447,46.8917415 C315.376465,47.3080788 317.630762,47.5183195 320.153625,47.5183195 C323.450282,47.5183195 325.78059,46.7862758 327.1444,45.3208147 C328.508921,43.8532815 329.191831,41.9721738 329.191831,39.6671389 L329.191831,38.1761689 C327.955516,38.7517369 326.681176,39.1839368 325.367545,39.4727529 C324.05457,39.7595048 322.626309,39.9042543 321.082043,39.9042543 C315.467342,39.9042543 311.166967,38.2140791 308.180871,34.8385557 C305.194775,31.4630323 303.701407,26.7399148 303.701407,20.6671389 C303.701407,17.6321245 304.163929,14.8714608 305.091041,12.3830676 C306.0181,9.89812803 307.369755,7.76610656 309.146611,5.98701109 C310.922763,4.2058435 313.0984,2.8320576 315.674215,1.86427198 C318.248618,0.895112809 321.159359,0.41122 324.403164,0.41122 C325.793447,0.41122 327.223075,0.477386265 328.690026,0.606987375 C330.156922,0.738637049 331.612968,0.909586189 333.054797,1.11775483 C334.495978,1.32661418 335.873349,1.57752796 337.187737,1.86427198 C338.500009,2.15309597 339.671263,2.45363052 340.701407,2.76657419 L340.701407,37.4689433 L340.701407,37.4689433 Z" id="path4190" fill="#00A8F8"></path>
            </g>
        </g>
    </g>
</svg>