<?xml version="1.0" standalone="no"?>
<!DOCTYPE svg PUBLIC "-//W3C//DTD SVG 20010904//EN"
 "http://www.w3.org/TR/2001/REC-SVG-20010904/DTD/svg10.dtd">
<svg version="1.0" xmlns="http://www.w3.org/2000/svg"
 width="692.000000pt" height="692.000000pt" viewBox="0 0 692.000000 692.000000"
 preserveAspectRatio="xMidYMid meet">
<metadata>
Created by potrace 1.11, written by Peter Selinger 2001-2013
</metadata>
<g transform="translate(0.000000,692.000000) scale(0.100000,-0.100000)"
fill="#000000" stroke="none">
<path d="M3280 6480 l0 -190 -190 0 -190 0 0 -190 0 -190 -375 0 -375 0 -2
-187 -3 -188 -187 -3 -188 -2 0 -375 0 -375 -190 0 -190 0 0 -190 0 -190 -190
0 -190 0 0 -750 0 -750 190 0 190 0 0 -380 0 -380 190 0 190 0 0 -375 0 -375
188 -2 187 -3 3 -187 2 -188 185 0 185 0 0 -190 0 -190 190 0 190 0 2 -187 3
-188 560 0 560 0 3 188 2 187 190 0 190 0 0 190 0 190 185 0 185 0 2 188 3
187 188 3 187 2 0 375 0 375 190 0 190 0 0 380 0 380 190 0 190 0 0 750 0 750
-190 0 -190 0 0 190 0 190 -190 0 -190 0 0 375 0 375 -185 0 -185 0 0 -185 0
-185 -192 0 c-106 0 -276 -2 -378 -3 l-185 -2 -3 -187 -2 -188 -185 0 -185 0
0 -190 0 -190 -195 0 -195 0 0 190 0 190 -184 0 -183 0 -8 369 c-4 203 -4 374
-1 380 5 7 70 11 192 11 l184 0 0 190 0 190 380 0 380 0 0 185 0 185 -190 0
-190 0 0 190 0 190 -185 0 -185 0 0 -190z m-753 -1227 c-1 -54 -3 -12 -3 92 0
105 2 149 3 98 2 -51 2 -136 0 -190z m2263 -1418 l0 -195 -195 0 -195 0 0 198
0 197 195 -3 195 -3 0 -194z m-2262 3 l-3 -193 -190 0 -190 0 -3 193 -2 192
195 0 195 0 -2 -192z m2639 -106 c-1 -53 -3 -7 -3 103 0 110 2 154 3 97 2 -57
2 -147 0 -200z m-1507 -272 l0 -195 -192 2 -193 2 -3 183 c-1 100 -1 187 2
193 2 6 72 10 195 10 l191 0 0 -195z m760 -184 c0 -3 -4 -8 -10 -11 -5 -3 -10
-1 -10 4 0 6 5 11 10 11 6 0 10 -2 10 -4z m-1520 -571 l0 -195 -196 0 c-175 0
-195 2 -190 16 3 9 6 96 6 195 l0 179 190 0 190 0 0 -195z m1520 0 l0 -195
-197 0 -198 0 2 192 c2 106 3 194 3 196 0 1 88 2 195 2 l195 0 0 -195z m-760
-752 l0 -198 -195 0 -195 0 0 192 0 193 193 3 c105 1 193 3 195 5 1 1 2 -87 2
-195z"/>
<path d="M4030 5725 l0 -185 375 0 375 0 0 185 0 185 -375 0 -375 0 0 -185z"/>
<path d="M3280 5350 l0 -190 185 0 185 0 0 190 0 190 -185 0 -185 0 0 -190z"/>
</g>
</svg>
