<svg id="Group_7" data-name="Group 7" xmlns="http://www.w3.org/2000/svg" width="226" height="226.99" viewBox="0 0 226 226.99">
  <defs>
    <style>
      .cls-1 {
        fill: #e3e3e3;
      }

      .cls-2 {
        fill: #333;
      }

      .cls-3 {
        fill: #d93730;
      }

      .cls-4 {
        opacity: 0.1;
      }

      .cls-5 {
        fill: #fda57d;
      }
    </style>
  </defs>
  <ellipse id="Ellipse_70" data-name="Ellipse 70" class="cls-1" cx="113" cy="112.83" rx="113" ry="112.83"/>
  <path id="Path_151" data-name="Path 151" class="cls-2" d="M663.95,722.77c0,37.74-27.11,56.31-62.32,56.31s-65.16-18.57-65.16-56.31,28.54-68.33,63.74-68.33S663.95,685,663.95,722.77Z" transform="translate(-488.1 -598.336)"/>
  <path id="Path_152" data-name="Path 152" class="cls-3" d="M601.63,825.48c22.171.038,43.22-7.742,61.727-19.951-4.18-22.84-19.447-22.859-19.447-22.859H556.19s-15,1.23-19.7,22.25a112.92,112.92,0,0,0,65.14,20.56Z" transform="translate(-488.1 -598.49)"/>
  <path id="Path_153" data-name="Path 153" class="cls-4" d="M373.49,683h35.09v28.07A17.54,17.54,0,0,1,391,728.64h0a17.54,17.54,0,0,1-17.54-17.54V683Z" transform="translate(-278.82 -526.71)"/>
  <path id="Path_154" data-name="Path 154" class="cls-5" d="M376.83,681.73h28.39a3.35,3.35,0,0,1,3.35,3.35V709.8A17.54,17.54,0,0,1,391,727.34h0a17.54,17.54,0,0,1-17.54-17.54V685.07a3.35,3.35,0,0,1,3.35-3.35Z" transform="translate(-278.82 -526.71)"/>
  <path id="Path_155" data-name="Path 155" class="cls-4" d="M582.84,768.06a50.5,50.5,0,0,0,35.09.1v-4.31H582.84Z" transform="translate(-488.1 -598.406)"/>
  <circle id="Ellipse_71" data-name="Ellipse 71" class="cls-5" cx="50.29" cy="50.29" r="50.29" transform="translate(62.05 71.478)"/>
  <path id="Path_156" data-name="Path 156" class="cls-4" d="M542.48,723.4s31.32-3.8,55-34.16c0,0,31.32,34.48,53.14,30.68,0,0,12.65-13.29,0-26.57s-22.46-30.05-39.22-27.84-37.33,3.16-46.18,11.07S542.48,723.4,542.48,723.4Z" transform="translate(-488.1 -598.285)"/>
  <path id="Path_157" data-name="Path 157" class="cls-2" d="M542.48,722.77s31.32-3.8,55-34.16c0,0,31.32,34.48,53.14,30.68,0,0,12.65-13.29,0-26.57s-22.46-30.05-39.22-27.84S574.11,668,565.26,676,542.48,722.77,542.48,722.77Z" transform="translate(-488.1 -598.284)"/>
  <ellipse id="Ellipse_72" data-name="Ellipse 72" class="cls-5" cx="4.68" cy="8.77" rx="4.68" ry="8.77" transform="translate(57.35 112.967)"/>
  <ellipse id="Ellipse_73" data-name="Ellipse 73" class="cls-5" cx="4.68" cy="8.77" rx="4.68" ry="8.77" transform="translate(157.94 112.967)"/>
</svg>
