<svg xmlns="http://www.w3.org/2000/svg" xmlns:xlink="http://www.w3.org/1999/xlink" width="861" height="633" viewBox="0 0 861 633">
  <defs>
    <style>
      .cls-1 {
        fill: #fff;
      }

      .cls-2 {
        fill: #e6e6e6;
      }

      .cls-3 {
        fill: #f3f3f3;
      }

      .cls-4 {
        fill: #d93730;
      }

      .cls-5 {
        filter: url(#Rectangle_5);
      }
    </style>
    <filter id="Rectangle_5" x="0" y="0" width="861" height="633" filterUnits="userSpaceOnUse">
      <feOffset input="SourceAlpha"/>
      <feGaussianBlur stdDeviation="49.5" result="blur"/>
      <feFlood flood-opacity="0.051"/>
      <feComposite operator="in" in2="blur"/>
      <feComposite in="SourceGraphic"/>
    </filter>
  </defs>
  <g id="Group_3" data-name="Group 3" transform="translate(-529.5 -2019.5)">
    <g class="cls-5" transform="matrix(1, 0, 0, 1, 529.5, 2019.5)">
      <rect id="Rectangle_5-2" data-name="Rectangle 5" class="cls-1" width="564" height="336" transform="translate(148.5 148.5)"/>
    </g>
    <g id="undraw_Spreadsheet_re_cn18" transform="translate(466.666 2149.489)">
      <rect id="seda" class="cls-2" width="51.47" height="22.782" transform="translate(287.803 92.442)"/>
      <rect id="seda-2" data-name="seda" class="cls-2" width="51.47" height="22.782" transform="translate(390.51 139.687)"/>
      <rect id="seda-3" data-name="seda" class="cls-2" width="51.47" height="22.782" transform="translate(595.237 186.931)"/>
      <path id="Path_4" data-name="Path 4" class="cls-3" d="M453.414,225.122v286h514v-286Zm512.315,23.693H916.183V226.81h49.546Zm-305.7,165.849V392.659H760.8v22.005ZM760.8,416.351v22.006H660.025V416.351Zm0-94.771v22.005H660.025V321.581Zm-100.777-1.687V297.888H760.8v22.006Zm0,47.385V345.273H760.8v22.006ZM760.8,368.966v22.006H660.025V368.966ZM658.34,343.586H608.794V321.581H658.34Zm0,1.687v22.006H608.794V345.273Zm0,23.693v22.006H608.794V368.966Zm0,23.693v22.005H608.794V392.659Zm104.148,0h49.546v22.005H762.488Zm0-1.687V368.966h49.546v22.006Zm0-23.693V345.273h49.546v22.006Zm0-23.693V321.581h49.546v22.005Zm0-23.692V297.888h49.546v22.006Zm0-23.693V274.2h49.546V296.2Zm-1.685,0H660.025V274.2H760.8Zm-102.463,0H608.794V274.2H658.34Zm0,1.687v22.006H608.794V297.888Zm-51.231,22.006H557.562V297.888h49.547Zm0,1.687v22.005H557.562V321.581Zm0,23.692v22.006H557.562V345.273Zm0,23.693v22.006H557.562V368.966Zm0,23.693v22.005H557.562V392.659Zm0,23.692v22.005H557.562V416.351Zm1.685,0H658.34v22.005H608.794Zm49.546,23.693v22.005H608.794V440.044Zm1.685,0H760.8v22.005H660.025Zm102.463,0h49.546v22.005H762.488Zm0-1.687V416.351h49.546v22.006Zm51.231-22.006h49.547v22.005H813.719Zm0-1.687V392.659h49.547v22.005Zm0-23.692V368.966h49.547v22.006Zm0-23.693V345.273h49.547v22.006Zm0-23.693V321.581h49.547v22.005Zm0-23.692V297.888h49.547v22.006Zm0-23.693V274.2h49.547V296.2Zm0-23.693V250.5h49.547v22.005Zm-1.685,0H762.488V250.5h49.546Zm-51.231,0H660.025V250.5H760.8Zm-102.463,0H608.794V250.5H658.34Zm-51.231,0H557.562V250.5h49.547Zm0,1.687V296.2H557.562V274.2ZM555.877,296.2H506.331V274.2h49.546Zm0,1.687v22.006H506.331V297.888Zm0,23.693v22.005H506.331V321.581Zm0,23.692v22.006H506.331V345.273Zm0,23.693v22.006H506.331V368.966Zm0,23.693v22.005H506.331V392.659Zm0,23.692v22.005H506.331V416.351Zm0,23.693v22.005H506.331V440.044Zm1.685,0h49.547v22.005H557.562Zm49.547,23.692v22.006H557.562V463.737Zm1.685,0H658.34v22.006H608.794Zm51.231,0H760.8v22.006H660.025Zm102.463,0h49.546v22.006H762.488Zm51.231,0h49.547v22.006H813.719Zm0-1.687V440.044h49.547v22.005Zm51.232-22.005H914.5v22.005H864.951Zm0-1.687V416.351H914.5v22.006Zm0-23.693V392.659H914.5v22.005Zm0-23.692V368.966H914.5v22.006Zm0-23.693V345.273H914.5v22.006Zm0-23.693V321.581H914.5v22.005Zm0-23.692V297.888H914.5v22.006Zm0-23.693V274.2H914.5V296.2Zm0-23.693V250.5H914.5v22.005Zm0-23.692V226.81H914.5v22.006Zm-1.685,0H813.719V226.81h49.547Zm-51.232,0H762.488V226.81h49.546Zm-51.231,0H660.025V226.81H760.8Zm-102.463,0H608.794V226.81H658.34Zm-51.231,0H557.562V226.81h49.547Zm-51.232,0H506.331V226.81h49.546Zm0,1.687v22.005H506.331V250.5Zm-51.231,22.005H455.1V250.5h49.546Zm0,1.687V296.2H455.1V274.2Zm0,23.693v22.006H455.1V297.888Zm0,23.693v22.005H455.1V321.581Zm0,23.692v22.006H455.1V345.273Zm0,23.693v22.006H455.1V368.966Zm0,23.693v22.005H455.1V392.659Zm0,23.692v22.006H455.1V416.351Zm0,23.693v22.005H455.1V440.044Zm0,23.692v22.006H455.1V463.737Zm1.685,0h49.546v22.006H506.331Zm49.546,23.693v22.005H506.331V487.43Zm1.685,0h49.547v22.005H557.562Zm51.232,0H658.34v22.005H608.794Zm51.231,0H760.8v22.005H660.025Zm102.463,0h49.546v22.005H762.488Zm51.231,0h49.547v22.005H813.719Zm51.232,0H914.5v22.005H864.951Zm0-1.687V463.737H914.5v22.006Zm51.231-22.006h49.546v22.006H916.183Zm0-1.687V440.044h49.546v22.005Zm0-23.692V416.351h49.546v22.006Zm0-23.693V392.659h49.546v22.005Zm0-23.692V368.966h49.546v22.006Zm0-23.693V345.273h49.546v22.006Zm0-23.693V321.581h49.546v22.005Zm0-23.692V297.888h49.546v22.006Zm0-23.693V274.2h49.546V296.2Zm0-23.693V250.5h49.546v22.005Zm-411.537-45.7v22.006H455.1V226.81ZM455.1,487.43h49.546v22.005H455.1Zm461.083,22.005V487.43h49.546v22.005Z" transform="translate(-217.08 -181.612)"/>
      <rect id="cerv" class="cls-4" width="51.47" height="22.782" transform="translate(287.803 210.553)"/>
      <rect id="cerv-2" data-name="cerv" class="cls-4" width="51.47" height="22.782" transform="translate(390.51 257.798)"/>
      <rect id="cerv-3" data-name="cerv" class="cls-4" width="51.47" height="22.782" transform="translate(646.551 281.416)"/>
      <rect id="cerv-4" data-name="cerv" class="cls-4" width="102.939" height="22.782" transform="translate(441.864 186.931)"/>
      <rect id="cerv-5" data-name="cerv" class="cls-4" width="102.939" height="22.782" transform="translate(441.864 67.98)"/>
    </g>
  </g>
</svg>
