<svg xmlns="http://www.w3.org/2000/svg" width="466" height="286" viewBox="0 0 466 286">
  <defs>
    <style>
      .cls-1 {
        fill: #333;
      }

      .cls-2 {
        fill: #ffb8b8;
      }

      .cls-3 {
        fill: #fdb797;
      }

      .cls-4 {
        fill: #e3e3e3;
      }

      .cls-5 {
        fill: #d93730;
      }

      .cls-6 {
        fill: #fff;
      }

      .cls-7 {
        fill: #e6e6e6;
      }

      .cls-8 {
        fill: #f2f2f2;
        isolation: isolate;
      }

      .cls-9 {
        fill: #c4d425;
      }
    </style>
  </defs>
  <g id="undraw_Freelancer_re_irh4" transform="translate(0 -178.5)">
    <path id="Path_54" data-name="Path 54" d="M737.283,607.1H273.717a1.219,1.219,0,0,1,0-2.437H737.283a1.219,1.219,0,0,1,0,2.437Z" transform="translate(-272.5 -203.616)"/>
    <circle id="Ellipse_19" data-name="Ellipse 19" class="cls-1" cx="32.905" cy="32.905" r="32.905" transform="translate(209.29 178.5)"/>
    <path id="Path_55" data-name="Path 55" class="cls-2" d="M173.561,383.38l-.871-14.914L229.806,358l1.287,22.015Z" transform="translate(37.374 38.648)"/>
    <path id="Path_56" data-name="Path 56" d="M18.143,0H46.958V18.143H0A18.143,18.143,0,0,1,18.143,0Z" transform="translate(212.698 378.097) rotate(86.655)"/>
    <path id="Path_57" data-name="Path 57" class="cls-2" d="M204.291,385.281,194.8,396.823l-49.036-31.1,14-17.035Z" transform="translate(31.548 36.611)"/>
    <path id="Path_58" data-name="Path 58" d="M18.143,0H46.957V18.143H0A18.143,18.143,0,0,1,18.143,0Z" transform="matrix(0.635, -0.773, 0.773, 0.635, 204.722, 452.98)"/>
    <path id="Path_59" data-name="Path 59" d="M445.069,578.524l-6.483,30.564a4.875,4.875,0,0,0,4.69,5.886L507.011,616a4.875,4.875,0,0,0,4.879-5.721l-5.575-31.592a4.875,4.875,0,0,0-4.8-4.028H449.838A4.875,4.875,0,0,0,445.069,578.524Z" transform="translate(-236.592 -210.163)"/>
    <path id="Path_60" data-name="Path 60" d="M466.512,591.029s-62.154-39-74.341-18.281c-6.094,10.359-3.047,20.413,1.523,27.878a42.2,42.2,0,0,0,17.552,15.71L461.637,641l18.281-19.5-12.187-10.968Z" transform="translate(-247.362 -212.053)"/>
    <path id="Path_61" data-name="Path 61" d="M481.621,582.756s80.434-23.155,64.591,20.718-75.559,26.811-75.559,26.811L464.559,612l20.718-14.624Z" transform="translate(-230.962 -209.874)"/>
    <circle id="Ellipse_20" data-name="Ellipse 20" class="cls-3" cx="29.933" cy="29.933" r="29.933" transform="translate(212.674 188.986)"/>
    <path id="Path_62" data-name="Path 62" class="cls-4" d="M482.985,607.233a160.865,160.865,0,0,1-36.874-4.858l-.356-.1-16.7-76.833a28.3,28.3,0,0,1,18.2-32.836,98.056,98.056,0,0,1,62.519-1.248h0A28.6,28.6,0,0,1,528.824,525.2l-18.656,77.016-.263.125C502.152,606.01,492.456,607.233,482.985,607.233Z" transform="translate(-238.807 -229.195)"/>
    <path id="Path_63" data-name="Path 63" class="cls-2" d="M454.91,596.811a12.255,12.255,0,0,1,17.641-6.474L505.44,561.79l2.976,22.434-31.688,23.67a12.321,12.321,0,0,1-21.818-11.083Z" transform="translate(-233.182 -212.957)"/>
    <path id="Path_64" data-name="Path 64" class="cls-4" d="M482.213,618.442a5.523,5.523,0,0,1-1.58-.232,5.427,5.427,0,0,1-3.61-3.432l-3.97-11.247a5.45,5.45,0,0,1,1.587-5.975l44.81-26.9-17.664-78.8.449-.108c.183-.045,18.281-4.164,25.7,15.612,5.193,13.851,24.412,43.967,23.057,64.319a18.14,18.14,0,0,1-15.017,16.73l-50.44,28.9A5.43,5.43,0,0,1,482.213,618.442Z" transform="translate(-229.188 -228.242)"/>
    <path id="Path_65" data-name="Path 65" class="cls-2" d="M494.238,594.618a12.255,12.255,0,0,0-17.641-6.474L443.708,559.6l-2.976,22.434L472.42,605.7a12.321,12.321,0,0,0,21.818-11.083Z" transform="translate(-236.086 -213.43)"/>
    <path id="Path_66" data-name="Path 66" class="cls-4" d="M474.615,618.442a5.43,5.43,0,0,1-3.32-1.139l-54.1-26.462a18.14,18.14,0,0,1-15.017-16.73c-1.356-20.351,21.519-52.905,26.713-66.756,7.416-19.777,25.514-15.659,25.7-15.612l.449.108-21.32,81.24,48.466,24.464a5.45,5.45,0,0,1,1.587,5.974l-3.97,11.247a5.427,5.427,0,0,1-3.61,3.432,5.532,5.532,0,0,1-1.58.232Z" transform="translate(-244.464 -228.242)"/>
    <path id="Path_67" data-name="Path 67" class="cls-5" d="M535.555,619.438H427.09a8.541,8.541,0,0,1-8.531-8.531V551.191a8.541,8.541,0,0,1,8.531-8.531H535.555a8.541,8.541,0,0,1,8.531,8.531v59.716A8.541,8.541,0,0,1,535.555,619.438Z" transform="translate(-240.955 -217.126)"/>
    <circle id="Ellipse_21" data-name="Ellipse 21" class="cls-6" cx="7.312" cy="7.312" r="7.312" transform="translate(233.06 356.639)"/>
    <path id="Path_68" data-name="Path 68" class="cls-1" d="M447.185,459.739c-1.774-4.5,1.137-9.862,5.455-12.042s9.528-1.765,14.147-.329c3.881,1.207,7.519,3.078,11.306,4.556a25.3,25.3,0,0,0,11.886,2.117c4.039-.456,8.059-2.721,9.712-6.435,1.713-3.849.548-8.547-2.09-11.832a22.91,22.91,0,0,0-10.5-6.745c-8.906-3.138-19.192-3.229-27.46,1.331s-13.886,14.271-12.177,23.557" transform="translate(-234.804 -242.039)"/>
    <path id="Path_69" data-name="Path 69" class="cls-7" d="M305.488,605.821A148.732,148.732,0,0,1,317.8,558.88q2.778-6.206,6.116-12.139a.906.906,0,0,0-1.564-.914,150.789,150.789,0,0,0-16.779,46.289q-1.26,6.8-1.894,13.705c-.107,1.16,1.7,1.153,1.812,0Z" transform="translate(-265.683 -216.505)"/>
    <circle id="Ellipse_22" data-name="Ellipse 22" class="cls-5" cx="11.473" cy="11.473" r="11.473" transform="translate(51.145 310.296)"/>
    <path id="Path_70" data-name="Path 70" class="cls-7" d="M306.337,602.263a96.49,96.49,0,0,1,7.986-30.453q1.8-4.026,3.967-7.875a.588.588,0,0,0-1.015-.593,97.824,97.824,0,0,0-10.885,30.03q-.817,4.414-1.228,8.891C305.092,603.015,306.268,603.011,306.337,602.263Z" transform="translate(-265.357 -212.66)"/>
    <circle id="Ellipse_23" data-name="Ellipse 23" class="cls-5" cx="7.443" cy="7.443" r="7.443" transform="translate(48.336 338.339)"/>
    <path id="Path_71" data-name="Path 71" class="cls-7" d="M307.657,601.483a96.489,96.489,0,0,1-12.434-28.923q-1.055-4.283-1.715-8.65a.588.588,0,0,0-1.165.156,97.821,97.821,0,0,0,9.887,30.373q2.071,3.983,4.5,7.766c.408.636,1.332-.09.927-.723Z" transform="translate(-268.161 -212.583)"/>
    <circle id="Ellipse_24" data-name="Ellipse 24" class="cls-5" cx="7.443" cy="7.443" r="7.443" transform="translate(16.729 337.818)"/>
    <path id="Path_72" data-name="Path 72" class="cls-8" d="M286.159,603.664V589.04a5.49,5.49,0,0,1,5.484-5.484h34.124a5.49,5.49,0,0,1,5.484,5.484v14.624a5.49,5.49,0,0,1-5.484,5.484H291.643a5.49,5.49,0,0,1-5.484-5.484Z" transform="translate(-269.513 -208.214)"/>
    <path id="Path_73" data-name="Path 73" class="cls-9" d="M592.118,616.812c0,8.016-6.5,11.659-14.513,11.659s-14.513-3.643-14.513-11.659,3.225-17.368,14.513-14.143C588.893,597.832,592.118,608.8,592.118,616.812Z" transform="translate(-209.564 -204.443)"/>
    <path id="Path_74" data-name="Path 74" d="M575.617,609.09a2.32,2.32,0,0,1-2.3-2.022c-.481-4-3.129-11.831-4.246-15.012h0a2.076,2.076,0,0,1,.268-1.909,2.178,2.178,0,0,1,3.246-.234,2.078,2.078,0,0,1,.571,1.556c-.219,4.083,2.758,10.682,4.552,14.252a2.325,2.325,0,0,1-1.84,3.359A2.124,2.124,0,0,1,575.617,609.09Z" transform="translate(-208.269 -206.966)"/>
    <path id="Path_75" data-name="Path 75" d="M585.378,600.146c5.038-4.123,1.085-12.562-5.22-10.942a5.091,5.091,0,0,0-2.271,1.211c-3.868,3.654-4.467,13-4.467,13S580.249,604.343,585.378,600.146Z" transform="translate(-207.307 -207.02)"/>
  </g>
</svg>
